<svg xmlns="http://www.w3.org/2000/svg" viewBox="0 0 79 75.65"><defs><style>.cls-1{fill:#fff;}</style></defs><g id="圖層_2" data-name="圖層 2"><g id="圖層_2-2" data-name="圖層 2"><path class="cls-1" d="M56.76,12.19l.73.73v-10H68.78V24.21l.73.73.82.82h1.31V2.62A2.58,2.58,0,0,0,69,0H57.16a2.58,2.58,0,0,0-2.61,2.62V10l.73.73Z"/><path class="cls-1" d="M9.73,34.67l-.57.58L7.69,36.72V69.1a6.56,6.56,0,0,0,6.54,6.55h51A6.56,6.56,0,0,0,71.8,69.1V36.72l-1.47-1.47-.57-.58h-.82V69.1a3.66,3.66,0,0,1-3.68,3.68H48.09V54.06a2.38,2.38,0,0,0-2.37-2.37H33.86a2.37,2.37,0,0,0-2.37,2.37V72.78H14.31a3.66,3.66,0,0,1-3.68-3.68V34.67ZM33.78,71.31V54.06H45.63V72.87H33.86Z"/><path class="cls-1" d="M42.85,62.73a1.47,1.47,0,1,0,1.48,1.47A1.52,1.52,0,0,0,42.85,62.73Z"/><path class="cls-1" d="M46,45.55a7.12,7.12,0,0,0,7.12-7.11V25.84A7.12,7.12,0,0,0,46,18.73H33.45a7.12,7.12,0,0,0-7.12,7.11v12.6a7.12,7.12,0,0,0,7.12,7.11Zm4.66-7.11A4.74,4.74,0,0,1,46,43.18H40.89V33.37H50.7v5.07Zm0-12.6v5.07H40.89V21.1H46A4.74,4.74,0,0,1,50.7,25.84Zm-22,0a4.74,4.74,0,0,1,4.74-4.74h5.07v9.81H28.71Zm0,12.6V33.37h9.81v9.81H33.45A4.85,4.85,0,0,1,28.71,38.44Z"/><path class="cls-1" d="M6.22,35.41,7,34.67,35.82,5.81a5.33,5.33,0,0,1,7.61,0L72.29,34.67l.74.74,4,4,1-1.06,1-1L56.84,15.21l-.33-.33-1.31-1.3-.73-.74L45.39,3.76a8.35,8.35,0,0,0-11.7,0L0,37.46l2,2Z"/></g></g></svg>