<svg xmlns="http://www.w3.org/2000/svg" width="81.959" height="63.746" viewBox="0 0 81.959 63.746">
  <defs>
    <style>
      .cls-1 {
        fill: #fff;
      }
    </style>
  </defs>
  <path id="icon_livingroom01" class="cls-1" d="M-13025.76,24099.979v-4.555h-63.747v4.555a1.517,1.517,0,0,1-1.518,1.518,1.514,1.514,0,0,1-1.519-1.518v-4.555h-4.555a1.515,1.515,0,0,1-1.518-1.518v-18.213a1.514,1.514,0,0,1,1.518-1.518h33.389a1.514,1.514,0,0,1-1.512-1.52,1.514,1.514,0,0,1,1.512-1.518h4.555v-3.031h-22.767a1.524,1.524,0,0,1-1.519-1.523v-27.316a1.519,1.519,0,0,1,1.519-1.518h48.57a1.516,1.516,0,0,1,1.519,1.518v27.316a1.521,1.521,0,0,1-1.519,1.523h-22.768v3.031h4.555a1.516,1.516,0,0,1,1.519,1.518,1.516,1.516,0,0,1-1.519,1.52h33.389a1.514,1.514,0,0,1,1.519,1.518v18.213a1.516,1.516,0,0,1-1.519,1.518h-4.548v4.555a1.514,1.514,0,0,1-1.519,1.518A1.514,1.514,0,0,1-13025.76,24099.979Zm-15.176-7.592h21.249v-15.176h-21.249Zm-30.358,0h27.322v-6.066h-27.322Zm-24.285,0h21.249v-15.176h-21.249Zm24.285-9.1h27.322v-6.074h-27.322Zm-9.109-18.219h45.534v-24.285h-45.534Zm44.017,18.213a1.519,1.519,0,0,1-1.519-1.514,1.519,1.519,0,0,1,1.519-1.518h3.036a1.516,1.516,0,0,1,1.519,1.518,1.515,1.515,0,0,1-1.519,1.514Zm-45.534,0a1.519,1.519,0,0,1-1.519-1.514,1.519,1.519,0,0,1,1.519-1.518h3.036a1.515,1.515,0,0,1,1.518,1.518,1.514,1.514,0,0,1-1.518,1.514Z" transform="translate(13098.615 -24037.75)"/>
</svg>
