<svg xmlns="http://www.w3.org/2000/svg" width="26.804" height="20.549" viewBox="0 0 26.804 20.549">
  <defs>
    <style>
      .cls-1 {
        fill: #fff;
      }
    </style>
  </defs>
  <path id="icon_bedroom01" class="cls-1" d="M-640.7-11205.263a.446.446,0,0,1-.448-.444v-2.234H-660.8v2.234a.445.445,0,0,1-.445.444h-1.789a.445.445,0,0,1-.445-.444v-2.234h-.448a.447.447,0,0,1-.445-.448v-6.254a4.024,4.024,0,0,1,3.127-3.916v-5.018a2.236,2.236,0,0,1,2.234-2.234h16.081a2.238,2.238,0,0,1,2.234,2.234v5.018a4.024,4.024,0,0,1,3.127,3.916v6.254a.447.447,0,0,1-.448.448h-.445v2.234a.446.446,0,0,1-.448.444Zm.445-.893h.9v-1.786h-.9Zm-22.336,0h.893v-1.786h-.893Zm-.893-2.68h25.018v-.9h-25.018Zm0-5.809v4.022h25.018v-4.022a3.133,3.133,0,0,0-3.127-3.128h-18.763A3.133,3.133,0,0,0-663.479-11214.644Zm18.763-7.593a1.34,1.34,0,0,1,1.341,1.338v2.234h1.786v-4.913a1.341,1.341,0,0,0-1.341-1.342H-659.01a1.341,1.341,0,0,0-1.341,1.342v4.913h1.786v-2.234a1.34,1.34,0,0,1,1.341-1.338h4.468a1.339,1.339,0,0,1,1.338,1.338v2.234h.893v-2.234a1.34,1.34,0,0,1,1.341-1.338Zm-4.913,1.338v2.234h5.359v-2.234a.446.446,0,0,0-.445-.445h-4.468A.446.446,0,0,0-649.629-11220.9Zm-8.043,0v2.234h5.361v-2.234a.446.446,0,0,0-.445-.445h-4.468A.447.447,0,0,0-657.672-11220.9Zm14.743,9.83a.445.445,0,0,1-.445-.448.444.444,0,0,1,.445-.445h.893a.447.447,0,0,1,.448.445.447.447,0,0,1-.448.448Zm2.234,0a.447.447,0,0,1-.448-.445.447.447,0,0,1,.448-.448h.893v-.893a.447.447,0,0,1,.448-.445.446.446,0,0,1,.445.445v1.341a.446.446,0,0,1-.445.445Zm-22.338-.445v-3.127a2.684,2.684,0,0,1,2.682-2.68.446.446,0,0,1,.445.445.447.447,0,0,1-.445.448,1.786,1.786,0,0,0-1.786,1.786v3.127a.445.445,0,0,1-.448.445A.445.445,0,0,1-663.034-11211.517Z" transform="translate(664.372 11225.812)"/>
</svg>
