<svg xmlns="http://www.w3.org/2000/svg" width="17.906" height="20.379" viewBox="0 0 17.906 20.379">
  <defs>
    <style>
      .cls-1 {
        fill: #fff;
      }
    </style>
  </defs>
  <path id="icon_shower" class="cls-1" d="M-788.714-11205.118v-17.934a1.225,1.225,0,0,0-1.223-1.223h-7.043a1.225,1.225,0,0,0-1.223,1.223v.416a7.263,7.263,0,0,1,3.454,1.063.405.405,0,0,1,.135.561.4.4,0,0,1-.558.136,6.515,6.515,0,0,0-3.392-.952h-.045a6.36,6.36,0,0,0-4.381,1.727,4.048,4.048,0,0,0-1.2,2.5h11.157a3.634,3.634,0,0,0-.233-1.042.413.413,0,0,1,.234-.529.408.408,0,0,1,.527.236,4.486,4.486,0,0,1,.293,1.4,1.19,1.19,0,0,1,.791,1.161,1.25,1.25,0,0,1-.3.826,1.145,1.145,0,0,1-.841.4.373.373,0,0,1-.057,0h-12a.361.361,0,0,1-.057,0,1.169,1.169,0,0,1-1.138-1.222,1.261,1.261,0,0,1,.3-.825,1.116,1.116,0,0,1,.5-.335,4.84,4.84,0,0,1,1.438-3.142,7.049,7.049,0,0,1,4.552-1.954v-.42a2.038,2.038,0,0,1,2.037-2.037h7.043a2.038,2.038,0,0,1,2.037,2.037v17.934a.406.406,0,0,1-.406.408A.408.408,0,0,1-788.714-11205.118Zm-3.9-10.849a.347.347,0,0,0,.282-.113.46.46,0,0,0,.1-.3.373.373,0,0,0-.38-.405h-12a.355.355,0,0,0-.282.11.466.466,0,0,0-.1.295.377.377,0,0,0,.38.409Zm-6.406,10.189v-1.631a.4.4,0,0,1,.406-.406.407.407,0,0,1,.408.406v1.631a.408.408,0,0,1-.408.408A.406.406,0,0,1-799.016-11205.777Zm2.592-3.26v-1.631a.406.406,0,0,1,.406-.408.408.408,0,0,1,.409.408v1.631a.407.407,0,0,1-.409.406A.406.406,0,0,1-796.424-11209.037Zm-2.592,0v-1.631a.406.406,0,0,1,.406-.408.408.408,0,0,1,.408.408v1.631a.407.407,0,0,1-.408.406A.406.406,0,0,1-799.016-11209.037Zm-2.595,0v-1.631a.408.408,0,0,1,.408-.408.408.408,0,0,1,.409.408v1.631a.407.407,0,0,1-.409.406A.409.409,0,0,1-801.61-11209.037Zm7.778-3.262v-1.632a.407.407,0,0,1,.409-.405.4.4,0,0,1,.406.405v1.632a.407.407,0,0,1-.406.408A.409.409,0,0,1-793.832-11212.3Zm-2.592,0v-1.632a.4.4,0,0,1,.406-.405.407.407,0,0,1,.409.405v1.632a.409.409,0,0,1-.409.408A.407.407,0,0,1-796.424-11212.3Zm-2.592,0v-1.632a.4.4,0,0,1,.406-.405.407.407,0,0,1,.408.405v1.632a.409.409,0,0,1-.408.408A.407.407,0,0,1-799.016-11212.3Zm-2.595,0v-1.632a.407.407,0,0,1,.408-.405.407.407,0,0,1,.409.405v1.632a.409.409,0,0,1-.409.408A.409.409,0,0,1-801.61-11212.3Zm-2.592,0v-1.632a.407.407,0,0,1,.408-.405.4.4,0,0,1,.406.405v1.632a.407.407,0,0,1-.406.408A.409.409,0,0,1-804.2-11212.3Zm10.2-7.59a.388.388,0,0,1-.118-.284.4.4,0,0,1,.118-.29.424.424,0,0,1,.575,0,.416.416,0,0,1,.121.29.4.4,0,0,1-.121.284.4.4,0,0,1-.287.124A.391.391,0,0,1-794.007-11219.889Z" transform="translate(805.805 11225.089)"/>
</svg>
