<svg xmlns="http://www.w3.org/2000/svg" viewBox="0 0 82.61 82.61"><defs><style>.cls-1{fill:#fff;}</style></defs><g id="圖層_2" data-name="圖層 2"><g id="圖層_2-2" data-name="圖層 2"><path class="cls-1" d="M81.61,48.47H54.74a1,1,0,0,0-1,1V80.6H28.88V50.49H50.27a1,1,0,0,0,0-2H48.61a4.5,4.5,0,0,0,.82-2.63V43.11h1.1a1,1,0,0,0,0-2h-1.1V39.25a1,1,0,0,0-1-1H34.19a1,1,0,0,0-1,1V41.1h-1.1a1,1,0,1,0,0,2h1.1v2.73A4.57,4.57,0,0,0,34,48.47H1a1,1,0,0,0-1,1V81.61a1,1,0,0,0,1,1h80.6a1,1,0,0,0,1-1V49.48A1,1,0,0,0,81.61,48.47ZM35.19,45.84V40.26H47.42v5.58a2.63,2.63,0,0,1-2.63,2.63h-7A2.64,2.64,0,0,1,35.19,45.84ZM2,50.49H26.87V56.6H2Zm0,8.13H26.87v22H2Zm78.59-2H55.75V50.49H80.6Zm0,24H55.75v-22H80.6Z"/><path class="cls-1" d="M32.26,59.21V69.26a3.62,3.62,0,0,0,3.62,3.62H46.73a3.63,3.63,0,0,0,3.63-3.62V59.21a1,1,0,0,0-1-1H33.26A1,1,0,0,0,32.26,59.21Zm2,1H48.34v9a1.62,1.62,0,0,1-1.61,1.61H35.88a1.62,1.62,0,0,1-1.61-1.61Z"/><path class="cls-1" d="M46.52,14.2h-.76a1,1,0,0,0,0,2h.76a1,1,0,0,0,0-2Z"/><path class="cls-1" d="M53.39,0H29.23a1,1,0,0,0-1,1V15L25,23.78a1,1,0,0,0,.6,1.29,1,1,0,0,0,.34.06H56.66a1,1,0,0,0,1-1,1,1,0,0,0-.06-.35L54.39,15V1A1,1,0,0,0,53.39,0Zm-26,23.12,2.53-6.9H41.05a1,1,0,1,0,0-2H30.23V2H52.38V14.2h-1.6a1,1,0,0,0,0,2h1.9l2.54,6.9Z"/><path class="cls-1" d="M6.79,66.34a1,1,0,0,0-1,1v4.53a1,1,0,0,0,2,0V67.34A1,1,0,0,0,6.79,66.34Z"/><path class="cls-1" d="M17,52.54H11.87a1,1,0,0,0,0,2H17a1,1,0,1,0,0-2Z"/><path class="cls-1" d="M60.52,72.88a1,1,0,0,0,1-1V67.34a1,1,0,0,0-2,0v4.53A1,1,0,0,0,60.52,72.88Z"/><path class="cls-1" d="M65.61,54.55h5.13a1,1,0,1,0,0-2H65.61a1,1,0,1,0,0,2Z"/><path class="cls-1" d="M48,54.69a.64.64,0,0,0,.13.15,1,1,0,0,0,1.43,0l.12-.15a.56.56,0,0,0,.09-.17.7.7,0,0,0,.06-.19.86.86,0,0,0,0-.39.6.6,0,0,0-.06-.19.76.76,0,0,0-.09-.18l-.12-.15a1,1,0,0,0-1.43,0l-.13.15-.09.18a1.05,1.05,0,0,0,0,.19.86.86,0,0,0,0,.39,1.33,1.33,0,0,0,0,.19Z"/><path class="cls-1" d="M32.91,54.69a1.07,1.07,0,0,0,.28.28.61.61,0,0,0,.18.09.64.64,0,0,0,.18.06.9.9,0,0,0,.4,0,1.08,1.08,0,0,0,.36-.15.93.93,0,0,0,.15-.13.64.64,0,0,0,.13-.15l.09-.17a.7.7,0,0,0,.06-.19,1.36,1.36,0,0,0,0-.2,1,1,0,0,0-1-1h0a1,1,0,0,0-1,1h0a1.36,1.36,0,0,0,0,.2l.06.19Z"/><path class="cls-1" d="M43.44,55.06a.6.6,0,0,0,.19.06.86.86,0,0,0,.39,0,.6.6,0,0,0,.19-.06.56.56,0,0,0,.17-.09l.16-.13a1,1,0,0,0,.29-.71.62.62,0,0,0,0-.19.6.6,0,0,0-.06-.19.76.76,0,0,0-.09-.18,1.58,1.58,0,0,0-.12-.15l-.16-.13-.17-.09L44,53.14a1.28,1.28,0,0,0-.39,0l-.19.06-.17.09-.16.13a1,1,0,0,0,0,1.42l.16.13A.56.56,0,0,0,43.44,55.06Z"/><path class="cls-1" d="M38,54.69a1.39,1.39,0,0,0,.28.28,1.14,1.14,0,0,0,.36.15.86.86,0,0,0,.39,0,1.2,1.2,0,0,0,.37-.15l.15-.13a.44.44,0,0,0,.12-.15,1,1,0,0,0,.1-.17l.06-.19c0-.07,0-.13,0-.2a1,1,0,0,0-1-1l-.2,0-.19.06-.17.09a.64.64,0,0,0-.15.13l-.13.15a.76.76,0,0,0-.09.18.6.6,0,0,0-.06.19.86.86,0,0,0,0,.39.7.7,0,0,0,.06.19A.56.56,0,0,0,38,54.69Z"/></g></g></svg>