<svg xmlns="http://www.w3.org/2000/svg" viewBox="0 0 74.27 82.77"><defs><style>.cls-1{fill:#fff;}</style></defs><g id="圖層_2" data-name="圖層 2"><g id="圖層_2-2" data-name="圖層 2"><path class="cls-1" d="M73.47,46.13h-1V42.5a.8.8,0,0,0-.8-.81h-4V22.47a.8.8,0,0,0-.8-.8H66.7L56.12,3.25a.8.8,0,0,0-.7-.4H51.36A2.47,2.47,0,0,0,50.47,2L47.33.3a2.53,2.53,0,0,0-3.42,1l-2.33,4.3a13.19,13.19,0,0,0-13.11,5.47A2.05,2.05,0,0,0,29,13.94a1.18,1.18,0,0,0,.19.11l6.06,3.3A4.5,4.5,0,0,0,43,21.58l5.78,3.09h0a2.06,2.06,0,0,0,2.79-.84l.09-.19A13.22,13.22,0,0,0,49.14,9.71l1.51-2.8h2.92L62.15,22a.78.78,0,0,0-.21.52V41.69H58.06a.8.8,0,0,0-.8.81h0v3.63H46V35.39a.8.8,0,0,0-.8-.8H29.37a3.67,3.67,0,0,0-2.26,6.57,3.65,3.65,0,0,0-.76,5h-5v-5a.8.8,0,0,0-.8-.8H4.73a3.69,3.69,0,0,0-3,5.77H.8a.8.8,0,0,0-.8.8V52.8a.8.8,0,0,0,.8.81H7.58V82a.8.8,0,0,0,.8.8h4.74a.8.8,0,0,0,.8-.8h0V61.28H60.35V82a.8.8,0,0,0,.8.8h4.74a.8.8,0,0,0,.8-.8h0V53.61h6.78a.8.8,0,0,0,.8-.81h0V46.93a.8.8,0,0,0-.8-.8ZM43.15,6l2.12-3.88a.92.92,0,0,1,1.24-.39l.05,0L49.71,3.5a1,1,0,0,1,.36.37,1.15,1.15,0,0,1,0,.37h0A.94.94,0,0,1,50,4.6L47.84,8.48h0a9.69,9.69,0,0,0-1-.78h-.07c-.37-.25-.75-.48-1.14-.7a10.76,10.76,0,0,0-1.2-.56H44.3c-.39-.16-.78-.3-1.16-.42ZM40.34,21.56a2.9,2.9,0,0,1-3.61-1.93,2.84,2.84,0,0,1,0-1.53l4.89,2.67a2.92,2.92,0,0,1-1.24.77ZM50.07,23a.46.46,0,0,1-.27.26.48.48,0,0,1-.37,0L43.1,19.86h0l-6.47-3.54h0l-6.7-3.64a.44.44,0,0,1-.22-.28.45.45,0,0,1,.06-.36,11.64,11.64,0,0,1,12-4.72h0a11,11,0,0,1,1.49.42l.23.09a10.41,10.41,0,0,1,2.72,1.43l.19.14a10.4,10.4,0,0,1,1.18,1h0A11.63,11.63,0,0,1,50.07,23ZM54,5.32H51.46a.22.22,0,0,1,.08-.2c.08-.07,0-.13.08-.2s0-.11,0-.17V4.47h3.25l9.89,17.21h-1l-9.06-16A.83.83,0,0,0,54,5.32Zm9.59,18h2.53V41.69H63.54Zm-4.64,20h12v2.83h-12Zm-31.67-5a2.07,2.07,0,0,1,2.09-2.07h15V37.5H31a.81.81,0,1,0,0,1.61H44.36V40.4h-15a2.07,2.07,0,0,1-2.14-2Zm0,5.77A2.09,2.09,0,0,1,29.31,42H44.36v1.29H31a.8.8,0,1,0,0,1.6H44.36v1.3h-15a2.08,2.08,0,0,1-2.14-2Zm-24.58,0A2.08,2.08,0,0,1,4.73,42H19.78v1.29H6.43a.8.8,0,0,0,0,1.6H19.78v1.3h-15a2.09,2.09,0,0,1-2.08-2.09Zm9.68,37.12H9.18V53.61h3.15Zm1.6-27.56H36.07v6.13H13.92Zm45.9,6.13H37.68V53.61H59.83Zm5.25,21.43H61.94V53.61h3.14ZM72.66,52H1.6V47.73H72.66Z"/></g></g></svg>